<svg width="72" height="19" viewBox="0 0 72 19" fill="none" xmlns="http://www.w3.org/2000/svg">
<g clip-path="url(#clip0)">
<path fill-rule="evenodd" clip-rule="evenodd" d="M37.0265 5.00013C36.1959 4.37244 35.1634 4.00049 34.0446 4.00049C31.2999 4.00049 29.0748 6.23904 29.0748 9.00052C29.0748 11.7619 31.2999 14.0005 34.0446 14.0005C36.7893 14.0005 39.0144 11.7619 39.0144 9.00052V4.00049H37.0265V5.00013ZM34.0446 12.0005C35.6915 12.0005 37.0265 10.6574 37.0265 9.00052C37.0265 7.34366 35.6915 6.00048 34.0446 6.00048C32.3977 6.00048 31.0627 7.34366 31.0627 9.00052C31.0627 10.6574 32.3977 12.0005 34.0446 12.0005Z" fill="white"/>
<path d="M36.7995 15.1485C36.9494 14.7845 37.0265 14.3944 37.0265 14.0005H39.0144C39.0144 14.6571 38.8859 15.3073 38.6361 15.9139C38.6242 15.9429 38.612 15.9717 38.5995 16.0005C38.3511 16.573 37.9982 17.0939 37.5588 17.536C37.0973 18.0003 36.5494 18.3686 35.9465 18.6199C35.3435 18.8711 34.6973 19.0005 34.0446 19.0005C33.3919 19.0005 32.7457 18.8711 32.1427 18.6199C31.5398 18.3686 30.9919 18.0003 30.5304 17.536C30.091 17.0939 29.7381 16.573 29.4897 16.0005C29.4772 15.9717 29.465 15.9429 29.4531 15.9139C29.2033 15.3073 29.0748 14.6571 29.0748 14.0005H31.0627V14.0011C31.0628 14.3949 31.1399 14.7847 31.2897 15.1485C31.4396 15.5125 31.6592 15.8432 31.9361 16.1218C32.213 16.4004 32.5417 16.6214 32.9035 16.7721C33.2653 16.9229 33.653 17.0005 34.0446 17.0005C34.4362 17.0005 34.824 16.9229 35.1857 16.7721C35.5475 16.6214 35.8762 16.4004 36.1531 16.1218C36.43 15.8432 36.6496 15.5125 36.7995 15.1485Z" fill="white"/>
<path fill-rule="evenodd" clip-rule="evenodd" d="M44.9765 12.0005C46.6233 12.0005 47.9584 10.6574 47.9584 9.00052C47.9584 7.34366 46.6233 6.00048 44.9765 6.00048C43.3296 6.00048 41.9946 7.34366 41.9946 9.00052C41.9946 10.6574 43.3296 12.0005 44.9765 12.0005ZM44.9765 14.0005C47.7213 14.0005 49.9463 11.7619 49.9463 9.00052C49.9463 6.2391 47.7213 4.00049 44.9765 4.00049C42.2317 4.00049 40.0067 6.2391 40.0067 9.00052C40.0067 11.7619 42.2317 14.0005 44.9765 14.0005Z" fill="white"/>
<path fill-rule="evenodd" clip-rule="evenodd" d="M55.9106 12C57.5575 12 58.8925 10.6569 58.8925 9.00002C58.8925 7.34316 57.5575 5.99998 55.9106 5.99998C54.2638 5.99998 52.9287 7.34316 52.9287 9.00002C52.9287 10.6569 54.2638 12 55.9106 12ZM55.9106 14C58.6554 14 60.8807 11.7614 60.8807 9.00002C60.8807 6.2386 58.6554 4 55.9106 4C53.1659 4 50.9408 6.2386 50.9408 9.00002C50.9408 11.7614 53.1659 14 55.9106 14Z" fill="white"/>
<path fill-rule="evenodd" clip-rule="evenodd" d="M69.8247 0V4.99965C68.9937 4.37196 67.9615 4.00001 66.8426 4.00001C64.0977 4.00001 61.8728 6.23859 61.8728 9C61.8728 11.7615 64.0977 14 66.8426 14C69.5874 14 71.8123 11.7615 71.8123 9V0H69.8247ZM69.8247 9C69.8247 7.34314 68.4891 6.00002 66.8426 6.00002C65.1954 6.00002 63.8605 7.34314 63.8605 9C63.8605 10.6569 65.1954 12 66.8426 12C68.4891 12 69.8247 10.6569 69.8247 9Z" fill="white"/>
<path fill-rule="evenodd" clip-rule="evenodd" d="M1.98793 13.0004C2.81855 13.6281 3.85101 14 4.96982 14C7.71456 14 9.93966 11.7614 9.93966 9.00002C9.93966 6.2386 7.71456 4 4.96982 4C2.22507 4 0 6.2386 0 9.00002L3.91027e-07 18H1.98793V13.0004ZM7.95169 9.00002C7.95169 10.6569 6.61668 12 4.96982 12C3.32296 12 1.98793 10.6569 1.98793 9.00002C1.98793 7.34316 3.32296 5.99998 4.96982 5.99998C6.61668 5.99998 7.95169 7.34316 7.95169 9.00002Z" fill="#37D59C"/>
<path fill-rule="evenodd" clip-rule="evenodd" d="M25.3464 14V8.15949e-08L27.3343 0V14H25.3464Z" fill="#37D59C"/>
<path d="M22.3639 2.50001C23.0501 2.50001 23.6063 1.94036 23.6063 1.25C23.6063 0.559646 23.0501 0 22.3639 0C21.6777 0 21.1215 0.559646 21.1215 1.25C21.1215 1.94036 21.6777 2.50001 22.3639 2.50001Z" fill="#37D59C"/>
<path d="M21.3699 4V14H23.3578V4H21.3699Z" fill="#37D59C"/>
<path d="M11.1832 8.75003V14H13.1711V8.75003C13.1711 8.7495 13.1711 8.74897 13.1711 8.74843C13.172 7.23039 14.3954 6.00002 15.9045 6.00002C16.8651 6.00002 17.6439 6.78353 17.6439 7.75004V14H19.6319V7.75004C19.6319 5.67895 17.9631 4.00001 15.9045 4.00001C14.8858 4.00001 13.9425 4.3246 13.1711 4.87657V0H11.1832V8.74802C11.1832 8.74867 11.1832 8.74938 11.1832 8.75003Z" fill="#37D59C"/>
</g>
<defs>
<clipPath id="clip0">
<rect width="72" height="19" fill="white"/>
</clipPath>
</defs>
</svg>
