<svg width="24" height="24" viewBox="0 0 24 24" fill="none" xmlns="http://www.w3.org/2000/svg">
<path d="M8.67831 11.6864C9.45765 13.2797 10.7492 14.5653 12.346 15.3374C12.4628 15.3928 12.5921 15.4168 12.721 15.407C12.8499 15.3973 12.9741 15.3541 13.0812 15.2818L15.4325 13.7139C15.5364 13.6446 15.6561 13.6023 15.7806 13.5909C15.905 13.5794 16.0304 13.5992 16.1452 13.6485L20.5439 15.5336C20.6934 15.5971 20.8181 15.7074 20.8994 15.8479C20.9807 15.9885 21.0141 16.1516 20.9946 16.3128C20.8555 17.4007 20.3247 18.4007 19.5015 19.1254C18.6783 19.8501 17.6192 20.2499 16.5224 20.25C13.135 20.25 9.88626 18.9043 7.49096 16.509C5.09566 14.1137 3.75 10.865 3.75 7.47756C3.75006 6.3808 4.14988 5.32166 4.87461 4.49846C5.59934 3.67526 6.59928 3.14446 7.6872 3.00542C7.84837 2.98592 8.01151 3.01932 8.15205 3.1006C8.29259 3.18188 8.40291 3.30663 8.46638 3.45605L10.3532 7.85858C10.402 7.97246 10.4219 8.09664 10.4111 8.22006C10.4003 8.34348 10.3591 8.46231 10.2913 8.56598L8.72885 10.9533C8.65774 11.0607 8.61571 11.1847 8.60685 11.3132C8.59799 11.4417 8.62261 11.5703 8.67831 11.6864V11.6864Z" stroke="#313233" stroke-width="2"/>
</svg>
