<svg width="32" height="32" viewBox="0 0 32 32" fill="none" xmlns="http://www.w3.org/2000/svg">
<path d="M1 15.8485C1.75885 15.8185 2.5177 15.7975 3.27654 15.7615C4.26335 15.7105 5.25315 15.6535 6.23995 15.5875C7.04379 15.5335 7.84163 15.4314 8.63047 15.2814C9.4853 15.1194 10.3221 14.8914 11.111 14.5104C12.8626 13.6643 14.0714 12.3201 14.7672 10.508C15.0882 9.66787 15.2711 8.79478 15.4001 7.90669C15.5681 6.74257 15.6551 5.57246 15.7061 4.39934C15.754 3.30123 15.796 2.20312 15.841 1.10501C15.841 1.06901 15.847 1.036 15.85 1C15.949 1 16.051 1 16.15 1C16.168 1.49805 16.183 1.9991 16.21 2.49715C16.2729 3.74527 16.3359 4.9934 16.4139 6.23852C16.4709 7.14161 16.5909 8.0387 16.7768 8.92379C16.9928 9.9529 17.3197 10.94 17.8836 11.8341C18.7894 13.2772 20.0612 14.2613 21.6599 14.8314C22.5207 15.1374 23.4115 15.3114 24.3113 15.4344C25.6101 15.6115 26.9148 15.6865 28.2226 15.7405C28.9364 15.7705 29.6503 15.7975 30.3641 15.8275C30.5201 15.8335 30.6731 15.8515 30.829 15.8545C30.886 15.8545 30.943 15.8305 31 15.8185C31 15.9475 31 16.0795 31 16.2085C30.964 16.1365 30.898 16.1425 30.832 16.1455C30.5711 16.1575 30.3131 16.1695 30.0522 16.1815C29.1584 16.2205 28.2645 16.2535 27.3707 16.2985C26.132 16.3615 24.8992 16.4515 23.6755 16.6616C22.6317 16.8386 21.6149 17.1026 20.6701 17.5977C19.0234 18.4557 17.8866 19.7639 17.2268 21.492C16.9058 22.3321 16.7229 23.2052 16.5939 24.0933C16.4229 25.2574 16.3389 26.4275 16.2879 27.6007C16.24 28.7348 16.195 29.8659 16.147 31C16.048 31 15.946 31 15.847 31C15.817 30.1569 15.793 29.3108 15.751 28.4677C15.7031 27.5407 15.6491 26.6106 15.5801 25.6835C15.5051 24.6724 15.3731 23.6673 15.1332 22.6772C14.9172 21.7891 14.6023 20.94 14.1164 20.1599C13.2495 18.7768 12.0408 17.8137 10.5231 17.2316C9.68326 16.9106 8.81044 16.7246 7.92561 16.5956C6.75885 16.4245 5.58308 16.3405 4.40432 16.2895C3.26755 16.2415 2.13377 16.1965 1 16.1485C1 16.0495 1 15.9475 1 15.8485Z" fill="#AEAFB2"/>
</svg>
