<svg width="32" height="32" viewBox="0 0 32 32" fill="none" xmlns="http://www.w3.org/2000/svg">
<path d="M9.93427 16.7336C9.42344 17.7377 10.0034 18.2177 11.3268 19.0377C12.4518 19.7327 14.0059 19.9869 15.0042 20.0885L14.1676 20.8935C12.9817 22.0227 11.8568 23.116 11.0701 23.8735C9.9251 24.971 11.7684 26.7318 12.9126 25.6577L16.0101 22.6702C17.1959 23.811 18.3325 24.9043 19.1075 25.6618C20.2525 26.7401 22.095 24.9943 20.9625 23.8777L17.865 20.8977L17.0167 20.0927C18.0275 19.991 19.5584 19.7219 20.67 19.0419L20.6692 19.0411C21.9925 18.2169 22.5725 17.7377 22.0692 16.7336C21.765 16.1636 20.945 15.6869 19.8534 16.5111C19.8534 16.5111 18.3792 17.6402 16.0017 17.6402C13.6234 17.6402 12.1501 16.5111 12.1501 16.5111C11.0584 15.6828 10.2351 16.1636 9.93427 16.7336Z" fill="#AEAFB2"/>
<path d="M15.9992 16.1183C18.8975 16.1183 21.2642 13.8533 21.2642 11.065C21.2642 8.26499 18.8975 6 15.9992 6C13.1 6 10.7334 8.26499 10.7334 11.065C10.7334 13.8533 13.1 16.1183 15.9992 16.1183ZM15.9992 8.56582C17.4234 8.56582 18.585 9.68331 18.585 11.065C18.585 12.435 17.4234 13.5525 15.9992 13.5525C14.575 13.5525 13.4134 12.435 13.4134 11.065C13.4125 9.68248 14.5742 8.56582 15.9992 8.56582Z" fill="#AEAFB2"/>
</svg>
