<svg width="32" height="32" viewBox="0 0 32 32" fill="none" xmlns="http://www.w3.org/2000/svg">
<path fill-rule="evenodd" clip-rule="evenodd" d="M16.9293 6.01741C16.8289 6.01229 16.7258 6.00704 16.6187 6C16.6252 6.01479 16.6306 6.02768 16.6354 6.039C16.6516 6.07751 16.6602 6.09789 16.6756 6.1132C16.7251 6.18003 16.7738 6.2476 16.8226 6.31525C16.9392 6.47679 17.0561 6.63882 17.1843 6.79241C17.3065 6.93674 17.3406 7.08674 17.3406 7.27069C17.3378 12.6743 17.3378 18.075 17.3378 23.4786V23.484C17.3378 24.5509 17.73 25.4452 18.5428 26.1499C19.1368 26.665 19.8303 26.9706 20.6175 26.9848C21.6626 27.0035 22.7093 27.0008 23.7552 26.998C24.1286 26.9971 24.5019 26.9961 24.875 26.9961C24.8984 26.9961 24.9218 26.9908 24.9525 26.9837C24.9666 26.9805 24.9822 26.977 25 26.9734C24.9928 26.9615 24.9861 26.9503 24.9798 26.9397C24.9562 26.9002 24.9378 26.8694 24.9176 26.8404C24.8605 26.7636 24.8042 26.6859 24.7479 26.6083C24.6133 26.4228 24.4783 26.2368 24.3321 26.0593C24.2241 25.9263 24.1843 25.7933 24.1843 25.6235C24.1872 21.2709 24.1872 16.9155 24.1872 12.5629C24.1872 11.1818 23.7438 9.95074 22.877 8.88098C22.2233 8.07159 21.3991 7.45747 20.4783 6.9707C19.5319 6.46979 18.5201 6.17263 17.4571 6.05377C17.2849 6.03553 17.1115 6.02669 16.9293 6.01741ZM13.8634 6.09666C13.8619 6.07165 13.8602 6.04487 13.8591 6.01477C13.8423 6.0155 13.8272 6.01604 13.8134 6.01653C13.7731 6.01797 13.743 6.01905 13.7113 6.02326C12.546 6.15344 11.4518 6.49871 10.4344 7.09019C9.23784 7.78638 8.23743 8.67218 7.61501 9.93155C7.31091 10.5457 7.08923 11.1909 7.04659 11.873C6.99828 12.6088 6.99259 13.3502 7.00681 14.0889C7.02954 15.2237 7.37912 16.2652 8.0129 17.2048C8.59268 18.0594 9.36573 18.7103 10.2382 19.248C11.4149 19.9754 12.7023 20.3631 14.0807 20.4621C14.1847 20.4699 14.2899 20.4683 14.404 20.4666C14.4553 20.4658 14.5084 20.465 14.5639 20.465C14.5241 20.4084 14.4985 20.3716 14.4729 20.3348C14.4211 20.2642 14.3686 20.1941 14.3163 20.124C14.1965 19.9639 14.0769 19.804 13.9642 19.6386C13.9102 19.5594 13.8704 19.4518 13.8704 19.3584C13.8676 14.9719 13.8676 10.5853 13.8676 6.19873C13.8676 6.16527 13.8656 6.13281 13.8634 6.09666Z" fill="#AEAFB2"/>
</svg>
