<svg width="32" height="32" viewBox="0 0 32 32" fill="none" xmlns="http://www.w3.org/2000/svg">
<path d="M25.8939 20.5997C25.8697 20.5475 25.8471 20.5042 25.8262 20.4695C25.4792 19.8445 24.8161 19.0775 23.8373 18.168L23.8166 18.1472L23.8062 18.137L23.7958 18.1265H23.7853C23.341 17.703 23.0597 17.4183 22.9419 17.2725C22.7264 16.9948 22.6781 16.7137 22.7959 16.4289C22.8791 16.2137 23.1917 15.7593 23.7331 15.065C24.0178 14.697 24.2433 14.4021 24.4098 14.1799C25.6109 12.5831 26.1316 11.5628 25.9719 11.1184L25.9098 11.0146C25.8682 10.9521 25.7606 10.8949 25.5872 10.8427C25.4135 10.7907 25.1914 10.7821 24.9206 10.8168L21.9217 10.8375C21.8731 10.8203 21.8037 10.8219 21.7133 10.8427C21.6231 10.8636 21.5779 10.8741 21.5779 10.8741L21.5257 10.9002L21.4843 10.9315C21.4496 10.9522 21.4114 10.9886 21.3697 11.0407C21.3282 11.0926 21.2935 11.1535 21.2658 11.2229C20.9393 12.0629 20.5681 12.8439 20.1515 13.5658C19.8946 13.9963 19.6587 14.3694 19.4433 14.6853C19.2281 15.0011 19.0476 15.2337 18.9019 15.3829C18.756 15.5321 18.6244 15.6517 18.5061 15.7421C18.3881 15.8324 18.298 15.8706 18.2356 15.8567C18.173 15.8427 18.1141 15.8288 18.0583 15.815C17.9612 15.7525 17.8831 15.6674 17.8242 15.5599C17.765 15.4523 17.7252 15.3168 17.7044 15.1537C17.6837 14.9904 17.6714 14.85 17.6679 14.732C17.6647 14.6141 17.6661 14.4473 17.6732 14.2321C17.6804 14.0168 17.6837 13.8711 17.6837 13.7947C17.6837 13.5309 17.6888 13.2446 17.6991 12.9356C17.7096 12.6267 17.7181 12.3819 17.7252 12.2016C17.7323 12.0211 17.7356 11.8302 17.7356 11.6288C17.7356 11.4275 17.7233 11.2696 17.6991 11.155C17.6752 11.0406 17.6385 10.9295 17.5901 10.8218C17.5414 10.7142 17.4701 10.6309 17.3766 10.5719C17.2829 10.5129 17.1664 10.466 17.0278 10.4312C16.6598 10.348 16.1912 10.3029 15.6219 10.2959C14.3307 10.2821 13.5011 10.3654 13.1331 10.5459C12.9874 10.6222 12.8554 10.7264 12.7375 10.8582C12.6125 11.011 12.5951 11.0944 12.6853 11.1081C13.1019 11.1705 13.3968 11.3198 13.5704 11.5558L13.6329 11.6808C13.6816 11.7711 13.7302 11.9308 13.7788 12.1599C13.8273 12.3889 13.8587 12.6423 13.8724 12.9198C13.9071 13.4267 13.9071 13.8606 13.8724 14.2215C13.8377 14.5826 13.8049 14.8637 13.7735 15.065C13.7422 15.2663 13.6954 15.4295 13.6329 15.5544C13.5704 15.6793 13.5288 15.7557 13.5079 15.7834C13.4871 15.8111 13.4697 15.8286 13.4559 15.8355C13.3657 15.8701 13.2719 15.8877 13.1747 15.8877C13.0775 15.8877 12.9595 15.839 12.8207 15.7418C12.6819 15.6445 12.5379 15.511 12.3886 15.3409C12.2393 15.1707 12.071 14.933 11.8835 14.6275C11.6961 14.3221 11.5017 13.9612 11.3004 13.5447L11.1338 13.2426C11.0297 13.0483 10.8874 12.7653 10.7069 12.394C10.5263 12.0225 10.3667 11.6632 10.2279 11.3161C10.1724 11.1703 10.0891 11.0593 9.97804 10.9829L9.92592 10.9516C9.89127 10.9239 9.83565 10.8945 9.75935 10.8631C9.68294 10.8318 9.60321 10.8093 9.51984 10.7955L6.66664 10.8162C6.37508 10.8162 6.17726 10.8822 6.07309 11.0142L6.03141 11.0766C6.01058 11.1113 6.00008 11.1668 6.00008 11.2432C6.00008 11.3196 6.0209 11.4134 6.06259 11.5243C6.4791 12.5033 6.93205 13.4473 7.42144 14.3567C7.91082 15.2661 8.33609 15.9987 8.69699 16.5537C9.05795 17.1092 9.42588 17.6334 9.80078 18.1261C10.1757 18.619 10.4238 18.9349 10.5453 19.0737C10.6668 19.2127 10.7623 19.3167 10.8317 19.3861L11.0921 19.636C11.2587 19.8026 11.5033 20.0022 11.8262 20.2347C12.1491 20.4673 12.5065 20.6964 12.8987 20.9222C13.291 21.1476 13.7474 21.3316 14.2681 21.4739C14.7888 21.6163 15.2955 21.6735 15.7884 21.6459H16.986C17.2288 21.6249 17.4128 21.5485 17.5379 21.4167L17.5793 21.3645C17.6072 21.3231 17.6333 21.2587 17.6574 21.1721C17.6817 21.0853 17.6938 20.9897 17.6938 20.8858C17.6867 20.5873 17.7094 20.3183 17.7614 20.0788C17.8133 19.8394 17.8724 19.6589 17.9386 19.5374C18.0047 19.4159 18.0793 19.3134 18.1624 19.2304C18.2456 19.1471 18.3049 19.0966 18.3397 19.0793C18.3743 19.0618 18.4019 19.05 18.4227 19.0429C18.5893 18.9873 18.7854 19.0411 19.0112 19.2044C19.2369 19.3675 19.4485 19.569 19.6465 19.8084C19.8444 20.048 20.0821 20.3168 20.3597 20.6153C20.6375 20.9138 20.8805 21.1358 21.0886 21.2818L21.2968 21.4067C21.4359 21.4901 21.6164 21.5665 21.8385 21.6359C22.0603 21.7053 22.2547 21.7226 22.4215 21.6879L25.0872 21.6464C25.3508 21.6464 25.556 21.6027 25.7015 21.5161C25.8473 21.4293 25.9339 21.3337 25.9619 21.2297C25.9897 21.1256 25.9912 21.0075 25.9672 20.8755C25.9425 20.7438 25.9182 20.6517 25.8939 20.5997Z" fill="#AEAFB2"/>
</svg>
