<svg width="32" height="32" viewBox="0 0 32 32" fill="none" xmlns="http://www.w3.org/2000/svg">
<path d="M24.2984 10.7534C23.6487 9.98107 22.4491 9.66602 20.1581 9.66602H11.8418C9.49834 9.66602 8.27841 10.0014 7.6311 10.8237C7 11.6255 7 12.8068 7 14.4418V17.558C7 20.7255 7.7488 22.3337 11.8418 22.3337H20.1581C22.1449 22.3337 23.2458 22.0557 23.958 21.3741C24.6884 20.6751 25 19.5338 25 17.558V14.4418C25 12.7175 24.9512 11.5292 24.2984 10.7534ZM18.5561 16.4301L14.7797 18.4038C14.6952 18.4479 14.6029 18.4698 14.5107 18.4698C14.4063 18.4698 14.3021 18.4417 14.2099 18.3859C14.0361 18.2806 13.9301 18.0923 13.9301 17.8892V13.9545C13.9301 13.7517 14.0359 13.5636 14.2092 13.4583C14.3827 13.3529 14.5984 13.3457 14.7783 13.4392L18.5547 15.4002C18.7469 15.4999 18.8675 15.6983 18.8678 15.9147C18.868 16.1313 18.7479 16.3299 18.5561 16.4301Z" fill="#AEAFB2"/>
</svg>
