<svg width="29" height="22" viewBox="0 0 29 22" fill="none" xmlns="http://www.w3.org/2000/svg">
<path d="M5.8374 21.058V19.6573C5.8374 19.1203 5.51056 18.7701 4.95027 18.7701C4.67012 18.7701 4.36663 18.8635 4.15652 19.167C3.9931 18.9102 3.75965 18.7701 3.40947 18.7701C3.17601 18.7701 2.94255 18.8402 2.75579 19.097V18.8168H2.26553V21.058H2.75579V19.8207C2.75579 19.4238 2.9659 19.237 3.29274 19.237C3.61958 19.237 3.78299 19.4471 3.78299 19.8207V21.058H4.27325V19.8207C4.27325 19.4238 4.50671 19.237 4.8102 19.237C5.13704 19.237 5.30045 19.4471 5.30045 19.8207V21.058H5.8374ZM13.0979 18.8168H12.3041V18.1398H11.8139V18.8168H11.3703V19.2604H11.8139V20.2876C11.8139 20.8012 12.024 21.1047 12.5843 21.1047C12.7944 21.1047 13.0278 21.0346 13.1912 20.9413L13.0512 20.521C12.9111 20.6144 12.7477 20.6378 12.631 20.6378C12.3975 20.6378 12.3041 20.4977 12.3041 20.2642V19.2604H13.0979V18.8168ZM17.2534 18.7701C16.9732 18.7701 16.7865 18.9102 16.6697 19.097V18.8168H16.1795V21.058H16.6697V19.7973C16.6697 19.4238 16.8332 19.2137 17.1366 19.2137C17.23 19.2137 17.3468 19.237 17.4401 19.2604L17.5802 18.7935C17.4868 18.7701 17.3468 18.7701 17.2534 18.7701ZM10.9734 19.0036C10.74 18.8402 10.4131 18.7701 10.0629 18.7701C9.50265 18.7701 9.12912 19.0503 9.12912 19.4938C9.12912 19.8674 9.40927 20.0775 9.89953 20.1475L10.133 20.1709C10.3898 20.2176 10.5299 20.2876 10.5299 20.4043C10.5299 20.5677 10.3431 20.6845 10.0163 20.6845C9.68942 20.6845 9.43262 20.5677 9.2692 20.451L9.03574 20.8245C9.29254 21.0113 9.64273 21.1047 9.99291 21.1047C10.6466 21.1047 11.0201 20.8012 11.0201 20.381C11.0201 19.9841 10.7166 19.774 10.2497 19.7039L10.0163 19.6806C9.80614 19.6573 9.64273 19.6106 9.64273 19.4705C9.64273 19.3071 9.80614 19.2137 10.0629 19.2137C10.3431 19.2137 10.6232 19.3304 10.7633 19.4005L10.9734 19.0036ZM24.0002 18.7701C23.7201 18.7701 23.5333 18.9102 23.4166 19.097V18.8168H22.9263V21.058H23.4166V19.7973C23.4166 19.4238 23.58 19.2137 23.8835 19.2137C23.9769 19.2137 24.0936 19.237 24.187 19.2604L24.3271 18.7935C24.2337 18.7701 24.0936 18.7701 24.0002 18.7701ZM17.7436 19.9374C17.7436 20.6144 18.2105 21.1047 18.9343 21.1047C19.2611 21.1047 19.4945 21.0346 19.728 20.8479L19.4945 20.451C19.3078 20.5911 19.121 20.6611 18.9109 20.6611C18.514 20.6611 18.2339 20.381 18.2339 19.9374C18.2339 19.5172 18.514 19.237 18.9109 19.2137C19.121 19.2137 19.3078 19.2837 19.4945 19.4238L19.728 19.0269C19.4945 18.8402 19.2611 18.7701 18.9343 18.7701C18.2105 18.7701 17.7436 19.2604 17.7436 19.9374ZM22.2727 19.9374V18.8168H21.7824V19.097C21.619 18.8869 21.3855 18.7701 21.082 18.7701C20.4517 18.7701 19.9615 19.2604 19.9615 19.9374C19.9615 20.6144 20.4517 21.1047 21.082 21.1047C21.4089 21.1047 21.6423 20.988 21.7824 20.7778V21.058H22.2727V19.9374ZM20.4751 19.9374C20.4751 19.5405 20.7319 19.2137 21.1521 19.2137C21.549 19.2137 21.8291 19.5172 21.8291 19.9374C21.8291 20.3343 21.549 20.6611 21.1521 20.6611C20.7319 20.6378 20.4751 20.3343 20.4751 19.9374ZM14.6153 18.7701C13.9617 18.7701 13.4947 19.237 13.4947 19.9374C13.4947 20.6378 13.9617 21.1047 14.6387 21.1047C14.9655 21.1047 15.2923 21.0113 15.5491 20.8012L15.3157 20.451C15.1289 20.5911 14.8955 20.6845 14.662 20.6845C14.3585 20.6845 14.055 20.5444 13.985 20.1475H15.6425C15.6425 20.0775 15.6425 20.0308 15.6425 19.9607C15.6659 19.237 15.2457 18.7701 14.6153 18.7701ZM14.6153 19.1903C14.9188 19.1903 15.1289 19.3771 15.1756 19.7273H14.0083C14.055 19.4238 14.2651 19.1903 14.6153 19.1903ZM26.7784 19.9374V17.9297H26.2881V19.097C26.1247 18.8869 25.8912 18.7701 25.5877 18.7701C24.9574 18.7701 24.4671 19.2604 24.4671 19.9374C24.4671 20.6144 24.9574 21.1047 25.5877 21.1047C25.9146 21.1047 26.148 20.988 26.2881 20.7778V21.058H26.7784V19.9374ZM24.9807 19.9374C24.9807 19.5405 25.2375 19.2137 25.6578 19.2137C26.0546 19.2137 26.3348 19.5172 26.3348 19.9374C26.3348 20.3343 26.0546 20.6611 25.6578 20.6611C25.2375 20.6378 24.9807 20.3343 24.9807 19.9374ZM8.59218 19.9374V18.8168H8.10192V19.097C7.9385 18.8869 7.70505 18.7701 7.40155 18.7701C6.77122 18.7701 6.28097 19.2604 6.28097 19.9374C6.28097 20.6144 6.77122 21.1047 7.40155 21.1047C7.72839 21.1047 7.96185 20.988 8.10192 20.7778V21.058H8.59218V19.9374ZM6.77122 19.9374C6.77122 19.5405 7.02802 19.2137 7.44824 19.2137C7.84512 19.2137 8.12527 19.5172 8.12527 19.9374C8.12527 20.3343 7.84512 20.6611 7.44824 20.6611C7.02802 20.6378 6.77122 20.3343 6.77122 19.9374Z" fill="#AEAFB2"/>
<path d="M10.81 1.79785H18.1639V15.0114H10.81V1.79785Z" fill="#7C6E72"/>
<path d="M11.2769 8.40439C11.2769 5.71966 12.5376 3.33841 14.4753 1.79761C13.0512 0.677021 11.2536 0 9.29255 0C4.64679 0 0.888153 3.75863 0.888153 8.40439C0.888153 13.0502 4.64679 16.8088 9.29255 16.8088C11.2536 16.8088 13.0512 16.1318 14.4753 15.0112C12.5376 13.4937 11.2769 11.0891 11.2769 8.40439Z" fill="#AEAFB2"/>
<path d="M28.0857 8.40439C28.0857 13.0502 24.3271 16.8088 19.6813 16.8088C17.7203 16.8088 15.9227 16.1318 14.4986 15.0112C16.4597 13.4704 17.697 11.0891 17.697 8.40439C17.697 5.71966 16.4363 3.33841 14.4986 1.79761C15.9227 0.677021 17.7203 0 19.6813 0C24.3271 0 28.0857 3.78198 28.0857 8.40439Z" fill="#AEAFB2"/>
</svg>
