<svg width="41" height="14" viewBox="0 0 41 14" fill="none" xmlns="http://www.w3.org/2000/svg">
<path fill-rule="evenodd" clip-rule="evenodd" d="M17.7252 13.0445H14.3888L16.474 0.229492H19.8108L17.7252 13.0445Z" fill="#AEAFB2"/>
<path fill-rule="evenodd" clip-rule="evenodd" d="M11.582 0.229492L8.40086 9.04342L8.02481 7.14537L8.02516 7.14605L6.90216 1.38368C6.90216 1.38368 6.76676 0.229492 5.31948 0.229492H0.0613602L0 0.446138C0 0.446138 1.60839 0.780705 3.48965 1.91158L6.38831 13.0445H9.86459L15.1728 0.229492H11.582Z" fill="#AEAFB2"/>
<path fill-rule="evenodd" clip-rule="evenodd" d="M34.1533 8.5114L35.9067 3.71537L36.8929 8.5114H34.1533ZM37.8246 13.0445H40.8881L38.2171 0.229492H35.5347C34.2959 0.229492 33.9946 1.18452 33.9946 1.18452L29.0189 13.0445H32.4962L33.1921 11.1413H37.4335L37.8246 13.0445Z" fill="#AEAFB2"/>
<path fill-rule="evenodd" clip-rule="evenodd" d="M29.2798 3.31105L29.7556 0.558755C29.7556 0.558755 28.2864 0 26.7548 0C25.0991 0 21.1675 0.723982 21.1675 4.24242C21.1675 7.55347 25.7819 7.59461 25.7819 9.33292C25.7819 11.0712 21.643 10.7607 20.2773 9.66406L19.7809 12.5411C19.7809 12.5411 21.2704 13.2651 23.5472 13.2651C25.8237 13.2651 29.2589 12.0856 29.2589 8.87769C29.2589 5.54573 24.6027 5.2355 24.6027 3.78685C24.6027 2.3382 27.852 2.52434 29.2798 3.31105Z" fill="#AEAFB2"/>
</svg>
