<svg width="65" height="24" viewBox="0 0 65 24" fill="none" xmlns="http://www.w3.org/2000/svg">
<g clip-path="url(#clip0)">
<path d="M3.0406 16.9786C0.343725 15.353 -0.150611 11.7112 2.03545 9.63103C2.67809 9.02141 3.46903 8.72194 4.35883 8.69521C5.10583 8.67381 5.85832 8.68986 6.6108 8.68986C6.67672 8.68986 6.74812 8.71659 6.836 8.73799C6.836 13.2353 6.836 17.7112 6.836 22.2139C6.36913 22.2139 5.91873 22.2139 5.43538 22.2139C5.43538 20.5508 5.43538 18.9038 5.43538 17.2353C5.11132 17.2353 4.8257 17.2353 4.50164 17.2353C3.6393 18.877 2.76048 20.5401 1.88715 22.2086C1.3269 22.2086 0.788627 22.2086 0.0910645 22.2086C1.10171 20.4011 2.0739 18.6899 3.0406 16.9786ZM5.40243 9.89307C3.90294 9.64708 2.91976 10.1604 2.48585 11.4385C2.16178 12.3957 2.12333 13.385 2.43641 14.353C2.92526 15.8717 4.0842 16.1979 5.40243 16C5.40243 13.9572 5.40243 11.9252 5.40243 9.89307Z" fill="#AEAFB2"/>
<path d="M19.9798 23.9892C19.9798 23.3796 19.9798 22.8235 19.9798 22.2459C18.6616 22.2459 17.3598 22.2459 16.0361 22.2459C16.0361 22.7165 16.0306 23.1818 16.0361 23.6523C16.0416 23.8876 15.9482 24.0053 15.701 24.0053C15.3825 24.0053 15.0694 24.0053 14.7343 24.0053C14.7343 23.0106 14.7343 22.0695 14.7343 21.1336C14.9101 21.0106 15.0969 21.1015 15.3001 21.0427C16.5689 18.5935 16.5854 15.9197 16.5799 13.2085C17.9091 13.2085 19.2218 13.2085 20.5675 13.2085C20.5675 13.3208 20.5675 13.4224 20.5675 13.5294C20.5675 15.8502 20.573 18.1764 20.562 20.4973C20.562 20.8983 20.6224 21.1497 21.1058 21.0748C21.1497 21.0695 21.2046 21.1069 21.2815 21.1336C21.2815 22.0213 21.2815 22.909 21.2815 23.7967C21.2815 23.9037 21.2156 23.9946 21.1003 23.9946C20.7378 23.9892 20.3753 23.9892 19.9798 23.9892ZM19.09 21.0534C19.09 18.7967 19.09 16.5668 19.09 14.3208C18.7549 14.3208 18.4364 14.3208 18.1178 14.3208C18.0739 14.3208 18.0299 14.3261 17.9695 14.3315C17.8871 16.6577 17.7223 18.9572 16.4865 21.0641C17.3488 21.0641 18.1617 21.0641 18.9746 21.0641C19.0131 21.0588 19.046 21.0534 19.09 21.0534Z" fill="#AEAFB2"/>
<path d="M12.2901 16.7164C12.2901 15.5507 12.2901 14.3956 12.2901 13.2031C12.768 13.2031 13.2294 13.2031 13.7127 13.2031C13.7127 16.2084 13.7127 19.2031 13.7127 22.2084C13.2403 22.2084 12.7899 22.2084 12.3011 22.2084C12.3011 20.7699 12.3011 19.3475 12.3011 17.909C11.5871 17.909 10.9005 17.909 10.1809 17.909C10.1809 19.3368 10.1809 20.7646 10.1809 22.2031C9.68661 22.2031 9.23622 22.2031 8.75287 22.2031C8.75287 19.2084 8.75287 16.2191 8.75287 13.1924C9.20876 13.1924 9.67014 13.1924 10.159 13.1924C10.159 14.3528 10.159 15.5239 10.159 16.7111C10.8785 16.7164 11.5651 16.7164 12.2901 16.7164Z" fill="#AEAFB2"/>
<path d="M27.1368 20.9306C27.2082 21.2301 27.2741 21.5028 27.34 21.7648C25.8625 22.7434 23.3414 22.9787 22.4131 20.4279C21.6716 18.3905 21.8474 16.3317 22.7811 14.3691C23.3414 13.1926 24.4289 12.7006 25.5 13.0375C26.3568 13.3049 26.7633 13.9894 27.0434 14.7541C27.4224 15.8022 27.4224 16.8932 27.4224 18.0215C26.1316 17.9948 24.8573 18.075 23.5556 17.952C23.5776 18.9359 23.5721 19.9092 24.3465 20.6472C25.1704 21.4333 26.1591 21.1017 27.1368 20.9306ZM25.9064 16.8611C25.89 16.0536 25.8625 15.2728 25.489 14.5563C25.1979 14.0001 24.6157 13.9145 24.2641 14.3958C23.7094 15.1498 23.6929 16.0429 23.627 16.9359C24.4015 16.8343 25.132 16.8825 25.9064 16.8611Z" fill="#AEAFB2"/>
<path d="M30.3278 17.5244C30.3278 19.1821 30.3278 20.6848 30.3278 22.2088C29.8389 22.2088 29.3885 22.2088 28.9052 22.2088C28.9052 19.2088 28.9052 16.2088 28.9052 13.1875C29.3775 13.1875 29.8224 13.1875 30.3113 13.1875C30.3113 14.5244 30.3113 15.8506 30.3113 17.3425C30.4651 17.0805 30.553 16.9522 30.6189 16.8185C31.1407 15.765 31.668 14.7169 32.1678 13.6527C32.3436 13.2837 32.5852 13.1233 32.9917 13.1554C33.3158 13.1768 33.6398 13.1607 34.0408 13.1607C33.2498 14.5725 32.5028 15.904 31.7449 17.257C32.6182 18.888 33.4915 20.5244 34.3923 22.2142C33.843 22.2142 33.3432 22.2302 32.8489 22.2035C32.6402 22.1928 32.5578 21.9896 32.4699 21.8185C31.7833 20.4334 31.0912 19.0484 30.3278 17.5244Z" fill="#AEAFB2"/>
<path d="M39.6435 13.5777C39.4238 13.9841 39.1986 14.3692 38.891 14.7435C38.6933 14.5938 38.534 14.4601 38.3692 14.3478C37.765 13.936 37.2268 14.0376 36.8368 14.6419C36.4248 15.2783 36.2765 16.0055 36.1942 16.7382C36.0843 17.6579 36.0953 18.5831 36.3425 19.4868C36.7269 20.8879 37.6607 21.3959 39.1437 21.0376C39.281 21.0055 39.4238 20.9735 39.5941 20.9307C39.6655 21.2034 39.7314 21.4601 39.8083 21.7542C39.2755 22.182 38.6439 22.4013 37.9683 22.4333C36.5841 22.4975 35.5515 21.8932 35.0572 20.5884C34.2553 18.4708 34.3926 16.3531 35.5021 14.3692C36.3479 12.8558 37.9188 12.5242 39.4403 13.4173C39.5007 13.4494 39.5556 13.5082 39.6435 13.5777Z" fill="#AEAFB2"/>
<path fill-rule="evenodd" clip-rule="evenodd" d="M61.2515 9.42246H64.0857V22.9733H63.8056H48.0033C46.8828 22.9733 46.1578 22.262 46.1578 21.1658C46.1578 20.2394 46.1625 19.313 46.1673 18.3866C46.1787 16.1632 46.1901 13.9399 46.1358 11.7166C46.0973 10.2246 46.6576 9.11765 47.811 8.22995C49.3087 7.08197 50.8113 5.93875 52.3139 4.79553C53.0651 4.22395 53.8163 3.65238 54.567 3.08021C55.5428 2.33512 56.5127 1.58713 57.503 0.823371L57.5031 0.823325C57.8561 0.55108 58.2117 0.276832 58.5711 0V9.39572V9.40091L58.5655 9.40088C58.5655 10.2611 58.5641 11.1227 58.5628 11.9849V11.9851C58.5614 12.8487 58.56 13.713 58.56 14.5774C58.56 14.7173 58.5453 14.825 58.4499 14.921C58.4298 14.9407 58.4063 14.9599 58.3789 14.9786C57.8155 15.3516 57.2522 15.7249 56.6888 16.0983C56.0402 16.5281 55.3921 16.9581 54.7441 17.3882C53.3653 18.3032 51.9866 19.219 50.6078 20.1347L50.6013 20.139C50.3386 20.3129 50.076 20.4859 49.8136 20.6588C49.3737 20.9487 48.9346 21.238 48.4976 21.5294L48.4983 21.5304L48.4921 21.5346C48.4975 21.5426 48.5017 21.5506 48.5058 21.5586L48.5058 21.5587C48.5099 21.5667 48.514 21.5747 48.5195 21.5827L48.5205 21.5824L48.5246 21.5811C52.7632 20.2394 57.0018 18.8977 61.2514 17.5506V17.5472L61.257 17.5455C61.2515 14.8293 61.2515 12.1239 61.2515 9.42387V9.42246ZM54.1986 11.2931C53.6427 11.2634 53.314 10.8202 53.4024 10.155C53.4957 9.41699 54.2262 8.62554 54.9732 8.44373C55.299 8.36566 55.5744 8.39889 55.7772 8.52565C55.7897 8.53351 55.8021 8.54173 55.8141 8.55031C56.033 8.70655 56.1572 8.98087 56.1543 9.34759C56.1434 10.1765 55.3579 11.1016 54.523 11.2674C54.4082 11.2906 54.2997 11.2988 54.1986 11.2931Z" fill="#AEAFB2"/>
</g>
<defs>
<clipPath id="clip0">
<rect width="64" height="24" fill="white" transform="translate(0.0857239)"/>
</clipPath>
</defs>
</svg>
